<svg xmlns="http://www.w3.org/2000/svg" width="16" height="16" viewBox="0 0 512 512" version="1.1">
	<path d="M 256 252.348 L 256 505 259.750 504.998 C 267.472 504.993, 290.835 502.916, 300 501.421 C 339.852 494.918, 379.147 477.392, 415.629 449.851 C 466.178 411.690, 500.036 352.791, 509.531 286.500 C 510.319 281, 511.031 274.475, 511.113 272 L 511.263 267.500 512 271 C 512.405 272.925, 512.728 264.150, 512.718 251.500 C 512.708 238.850, 512.385 230.525, 512 233 L 511.300 237.500 511.150 233.128 C 510.738 221.128, 505.882 195.809, 500.866 179.509 C 483.660 123.591, 447.863 75.716, 399 43.275 C 358.297 16.252, 317.737 2.794, 269.731 0.385 L 256 -0.304 256 252.348 M 190 7.995 C 168.385 13.850, 146.853 22.458, 129.696 32.103 C 61.755 70.294, 15.284 136.076, 2.961 211.500 C 0.088 229.084, 0.106 276.572, 2.992 293.452 C 19.118 387.780, 85.324 463.577, 177.266 492.970 C 185.519 495.608, 202.295 499.975, 204.250 499.993 C 204.662 499.997, 204.993 488.188, 204.984 473.750 L 204.969 447.500 191.566 443.189 C 118.013 419.530, 63.490 354.160, 53.536 277.699 C 41.499 185.237, 95.908 96.798, 185.259 63.588 C 190.626 61.593, 197.264 59.442, 200.009 58.809 L 205 57.657 205 31.328 L 205 5 202.750 5.075 C 201.512 5.117, 195.775 6.431, 190 7.995 M 307 134.625 L 307 212.250 309.750 211.692 C 314.547 210.718, 444.286 175.048, 444.762 174.571 C 445.513 173.820, 434.449 153.871, 427.151 142.819 C 401.307 103.682, 366.192 76.948, 319.153 60.597 C 313.462 58.619, 308.400 57, 307.903 57 C 307.373 57, 307 89.087, 307 134.625 M 384.500 243.895 C 344.900 254.768, 311.262 263.972, 309.750 264.351 L 307 265.038 307 356.599 L 307 448.159 310.250 447.452 C 324.586 444.332, 351.079 432.302, 368 421.228 C 427.743 382.129, 460 322.828, 460 252.095 C 460 233.641, 459.175 223.974, 457.608 224.064 C 456.998 224.099, 424.100 233.023, 384.500 243.895" stroke="none" fill="black" fill-rule="evenodd"/>
</svg>