<svg xmlns="http://www.w3.org/2000/svg" xmlns:xlink="http://www.w3.org/1999/xlink"><symbol id="angle_left">
    <path d="M7 1.41L5.668 0 0 6l5.668 6L7 10.59 2.673 6 7 1.41z" fill="currentColor"/>
</symbol><symbol id="angle_right">
    <path d="M0 10.59L1.332 12 7 6 1.332 0 0 1.41 4.327 6 0 10.59z" fill="currentColor"/>
</symbol><symbol id="app_gp" viewBox="0 0 36 36">
    <path fill-rule="evenodd" clip-rule="evenodd" d="M6.75 0A6.75 6.75 0 000 6.75v22.5A6.75 6.75 0 006.75 36h22.5A6.75 6.75 0 0036 29.25V6.75A6.75 6.75 0 0029.25 0H6.75zm13.156 17.244L8.99 6.408c.22.006.457.077.677.205l13.23 7.638-2.992 2.993zM7.92 7.526c0-.232.059-.439.157-.614l11.104 11.04L8.014 29.042a1.133 1.133 0 01-.094-.457V7.526zm12.694 10.427l3.198-3.182.602.35c1.228.715 3.038 1.767 3.32 1.918.381.205.608.54.614.898.004.217-.075.624-.63.945l-3.906 2.236-3.198-3.165zM8.896 29.576l11.01-10.915 3.008 2.993-4.3 2.473s-8.72 5.042-9.15 5.292a1.24 1.24 0 01-.568.157z" fill="currentColor"/>
</symbol><symbol id="app_qr" viewBox="0 0 36 36">
    <g fill="currentColor">
        <path d="M14.813 10.563h-4.25v4.25h4.25v-4.25zM10.563 21.188h4.25v4.25h-4.25v-4.25zM21.188 14.813h4.25v-4.25h-4.25v4.25z"/>
        <path fill-rule="evenodd" clip-rule="evenodd" d="M6.75 0A6.75 6.75 0 000 6.75v22.5A6.75 6.75 0 006.75 36h22.5A6.75 6.75 0 0036 29.25V6.75A6.75 6.75 0 0029.25 0H6.75zm8.063 16.938h-4.25a2.131 2.131 0 01-2.126-2.125v-4.25c0-1.17.957-2.126 2.126-2.126h4.25c1.168 0 2.124.957 2.124 2.126v4.25a2.131 2.131 0 01-2.125 2.124zm-4.25 10.625h4.25a2.131 2.131 0 002.124-2.125v-4.25a2.131 2.131 0 00-2.125-2.125h-4.25a2.131 2.131 0 00-2.124 2.125v4.25c0 1.168.956 2.125 2.124 2.125zm8.5-12.75v-4.25c0-1.17.956-2.126 2.125-2.126h4.25c1.168 0 2.125.957 2.125 2.126v4.25a2.131 2.131 0 01-2.125 2.124h-4.25a2.131 2.131 0 01-2.125-2.125zm8.5 12.218V25.97a.526.526 0 00-.532-.532H25.97a.526.526 0 00-.532.532v1.062c0 .298.234.532.532.532h1.062a.526.526 0 00.532-.532zm-8.5-6.375v-1.062c0-.298.233-.532.53-.532h1.063c.298 0 .532.234.532.532v1.062a.526.526 0 01-.532.532h-1.062a.526.526 0 01-.532-.532zm3.718.532H21.72a.526.526 0 00-.532.53v1.063c0 .298.234.532.532.532h1.062a.526.526 0 00.532-.532V21.72a.526.526 0 00-.532-.532zm-3.718 3.718v-1.062c0-.298.233-.532.53-.532h1.063c.298 0 .532.234.532.532v1.062a.526.526 0 01-.532.532h-1.062a.526.526 0 01-.532-.532zm2.656 2.657h1.062a.526.526 0 00.532-.532V25.97a.526.526 0 00-.532-.532H21.72a.526.526 0 00-.532.532v1.062c0 .298.234.532.532.532zm3.187-2.125h-1.062a.526.526 0 01-.532-.532v-1.062c0-.298.234-.532.532-.532h1.062c.298 0 .532.234.532.532v1.062a.526.526 0 01-.532.532zm0-6.375h-1.062a.526.526 0 00-.532.53v1.063c0 .298.234.532.532.532h1.062a.526.526 0 00.532-.532v-1.062a.526.526 0 00-.532-.532zm2.125 4.25H25.97a.526.526 0 01-.532-.532V21.72c0-.298.234-.532.532-.532h1.062c.298 0 .532.234.532.532v1.062a.526.526 0 01-.532.532z"/>
    </g>
</symbol><symbol id="app_store" viewBox="0 0 36 36">
    <path d="M27.908 0H8.092C3.622 0 0 3.63 0 8.108V27.89C0 32.37 3.623 36 8.092 36h19.817C32.377 36 36 32.37 36 27.891V8.108C36 3.63 32.377 0 27.908 0zM10.054 28.572a1.797 1.797 0 01-2.463.645 1.805 1.805 0 01-.643-2.467l.262-.449a4.403 4.403 0 011.452-.21h.005c.92.026 1.691.444 2.218 1.06l-.831 1.421zm10.118-4.288H6.3c-.994 0-1.8-.808-1.8-1.804s.806-1.804 1.8-1.804h4.199l5.279-9.027-1.63-2.788a1.806 1.806 0 01.643-2.469 1.799 1.799 0 012.463.644l.61 1.044.61-1.044a1.798 1.798 0 012.464-.644 1.806 1.806 0 01.642 2.469l-6.91 11.815h3.763a4.424 4.424 0 011.394 1.48l.003.003c.396.69.483 1.437.342 2.125zm9.528 0h-2.36l1.441 2.465a1.805 1.805 0 01-1.55 2.714 1.8 1.8 0 01-1.556-.892l-5.536-9.467a4.512 4.512 0 01.098-4.458l.744-1.238 4.249 7.268h4.47c.994 0 1.8.808 1.8 1.804s-.806 1.804-1.8 1.804z" fill="currentColor"/>
</symbol><symbol id="arrow_down">
    <path d="M1.88 0L0 1.713 8 9l8-7.287L14.12 0 8 5.563 1.88 0z" fill="currentColor"/>
</symbol><symbol id="arrow_left" viewBox="0 0 22 16">
    <path d="M7.7 16l1.551-1.611-5.038-5.246H22V6.857H4.213l5.049-5.246L7.7 0 0 8l7.7 8z" fill="currentColor"/>
</symbol><symbol id="arrow_right" viewBox="0 0 17 12">
    <path d="M16.566 6.566a.8.8 0 000-1.132L11.475.344a.8.8 0 00-1.132 1.13L14.87 6l-4.526 4.525a.8.8 0 001.132 1.132l5.09-5.091zM0 6.8h16V5.2H0v1.6z" fill="currentColor"/>
</symbol><symbol id="arrow_top" viewBox="0 0 8 61">
    <path d="M4.354.646a.5.5 0 00-.708 0L.464 3.828a.5.5 0 10.708.708L4 1.707l2.828 2.829a.5.5 0 00.708-.708L4.354.646zM4.5 61V1h-1v60h1z" fill="currentColor"/>
</symbol><symbol id="bell" viewBox="0 0 14 18">
    <path d="M7.001 18c.897 0 1.623-.745 1.623-1.666H5.378c0 .92.726 1.666 1.623 1.666zm5.708-5.023V7.953c0-2.804-1.925-5.148-4.485-5.718v-.98C8.224.562 7.678 0 7.001 0S5.778.56 5.778 1.256v.98c-2.56.569-4.484 2.913-4.484 5.717v5.024l-1.052 1.08c-.514.527-.155 1.431.57 1.431h12.37c.725 0 1.092-.904.578-1.431l-1.051-1.08z" fill="currentColor"/>
</symbol><symbol id="close">
    <rect x="18" y="1.5" width="23.335" height="2.121" rx="1" transform="rotate(135 18 1.5)" fill="currentColor"/>
    <rect x="16.5" y="18" width="23.335" height="2.121" rx="1" transform="rotate(-135 16.5 18)" fill="currentColor"/>
</symbol><symbol id="crypto_circle" viewBox="0 0 135 137">
    <path d="M9.591 104.507c-.33-.571-.426-1.121-.286-1.65.132-.53.515-.98 1.15-1.348l2.638-1.53.356.615-2.578 1.495c-.473.274-.765.601-.876.981-.11.38-.04.79.215 1.228.284.49.657.794 1.118.912.453.116.935.025 1.449-.273l2.387-1.384.357.614-4.551 2.638-.341-.588.839-.487a1.936 1.936 0 01-1.041-.321 2.56 2.56 0 01-.836-.902zM5.574 89.37l1.444.868 1.439-.423.2.68L1.54 92.59l-.2-.68 4.825-1.42-3.64-2.203-.248-.844 2.698 1.552 2.289-3.238.245.834-1.934 2.78zM2.751 72.062l.24 4.393c.545-.07.976-.303 1.295-.701.312-.398.452-.886.42-1.466a2.327 2.327 0 00-.219-.889 2.02 2.02 0 00-.558-.68l.438-.425c.292.218.52.499.687.844.165.338.26.717.282 1.136.03.54-.057 1.025-.26 1.456a2.535 2.535 0 01-.906 1.021 2.723 2.723 0 01-1.359.425 2.853 2.853 0 01-1.396-.254 2.472 2.472 0 01-.999-.866 2.595 2.595 0 01-.411-1.3 2.541 2.541 0 01.267-1.326c.206-.399.505-.72.9-.961.387-.242.84-.376 1.36-.405l.22-.002zm-2.137 2.66c.027.507.214.924.559 1.252.338.322.768.492 1.29.51l-.204-3.724c-.517.075-.925.294-1.226.658-.308.357-.447.792-.42 1.305zm.823-13.827a1.728 1.728 0 01-.678-.854c-.127-.356-.153-.775-.078-1.256l.682.105-.036.167c-.085.546.017 1 .305 1.362.288.362.735.59 1.341.684l2.648.41-.108.702-5.198-.806.104-.672 1.018.158zm7.255-12.021a2.863 2.863 0 01-.814 1.19 2.48 2.48 0 01-1.228.56c-.47.072-.944.017-1.424-.164a2.723 2.723 0 01-1.167-.816 2.48 2.48 0 01-.548-1.235 2.863 2.863 0 01.178-1.43c.16-.423.387-.769.68-1.035.29-.276.63-.45 1.022-.523l.149.624a1.62 1.62 0 00-.776.411c-.22.203-.385.45-.495.743a2.056 2.056 0 00-.122 1.056c.05.34.19.645.422.918.234.267.538.472.912.613.38.144.746.194 1.099.149.348-.054.656-.19.924-.41a2.11 2.11 0 00.599-.874c.11-.293.154-.587.13-.88a1.62 1.62 0 00-.308-.823l.524-.368c.245.313.387.67.428 1.07a2.75 2.75 0 01-.185 1.224zm1.867-13.859a1.727 1.727 0 01-.274-1.055c.028-.377.174-.771.437-1.18l.58.372-.1.137c-.299.466-.39.923-.272 1.37.117.447.433.837.95 1.168l2.255 1.447-.383.597-4.427-2.84.367-.572.867.556zm9.244-13.341l2.392 5.99c.205.497.284.918.238 1.263-.047.345-.208.658-.482.94a2.06 2.06 0 01-.58.426 1.54 1.54 0 01-.656.158l-.15-.606a1.31 1.31 0 00.956-.41.945.945 0 00.281-.577c.025-.217-.026-.49-.153-.818l-.206-.52-5.403-1.973.516-.53 4.586 1.694-1.827-4.535.488-.502zm10.01-8.22a2.67 2.67 0 011.313-.435c.455-.03.888.066 1.298.286.41.221.755.55 1.035.989.283.444.439.898.467 1.363.027.465-.066.9-.281 1.306-.213.397-.53.73-.952 1a2.56 2.56 0 01-1.117.405 2.24 2.24 0 01-1.128-.205l1.577 2.47-.598.381-3.876-6.068.573-.366.56.877a2.197 2.197 0 01.277-1.127c.197-.347.481-.64.852-.876zm2.499 4.005c.309-.198.545-.447.708-.75.16-.307.225-.637.197-.991a2.174 2.174 0 00-.357-1.042 2.117 2.117 0 00-.79-.753 1.802 1.802 0 00-.982-.239 1.963 1.963 0 00-.983.32 1.97 1.97 0 00-.711.762c-.154.304-.22.635-.197.992.024.348.144.691.36 1.028.215.337.477.593.786.767.315.171.642.25.983.239.343-.021.671-.132.986-.333zm13.884-6.697a1.395 1.395 0 01-.372.436 2.069 2.069 0 01-.542.295c-.463.17-.866.176-1.208.018-.342-.158-.597-.466-.765-.923L42.21 7.604l-.882.324-.207-.563.882-.324-.397-1.08.667-.245.396 1.08 1.502-.553.207.563-1.501.553 1.083 2.947c.108.294.263.493.465.596.205.095.445.092.72-.01.138-.05.262-.12.37-.21a1.05 1.05 0 00.27-.312l.41.393zm10.71-2.438c-.502.068-.97.018-1.403-.151a2.552 2.552 0 01-1.082-.82 2.722 2.722 0 01-.534-1.32 2.71 2.71 0 01.16-1.415 2.48 2.48 0 01.821-1.072c.372-.28.81-.454 1.311-.523a2.77 2.77 0 011.404.151c.434.17.79.44 1.07.812.287.371.465.811.534 1.32.07.508.017.98-.159 1.414a2.48 2.48 0 01-.81 1.08c-.373.28-.81.455-1.312.524zm-.085-.625c.37-.05.688-.178.956-.383a1.8 1.8 0 00.595-.818c.122-.333.156-.698.102-1.094a2.242 2.242 0 00-.393-1.027 1.736 1.736 0 00-.791-.618 1.928 1.928 0 00-1.026-.121c-.37.05-.692.182-.966.394a1.82 1.82 0 00-.595.809 2.242 2.242 0 00-.103 1.094c.055.396.186.738.393 1.026.215.287.479.496.793.628.32.124.665.161 1.035.11zm16.505-5.293c.49.055.922.217 1.294.486.374.263.65.609.83 1.038.181.43.243.902.185 1.42a2.807 2.807 0 01-.491 1.343c-.27.38-.617.66-1.04.84a2.67 2.67 0 01-1.369.19 2.508 2.508 0 01-1.151-.41 2.175 2.175 0 01-.746-.897l-.115 1.034-.675-.075L70.867 0l.705.078-.349 3.141a2.16 2.16 0 01.92-.672 2.48 2.48 0 011.183-.14zm-.57 4.686a2.03 2.03 0 001.02-.138c.318-.14.577-.355.777-.648.207-.293.332-.638.377-1.035a2.174 2.174 0 00-.14-1.092 1.737 1.737 0 00-.617-.793 1.96 1.96 0 00-.965-.37 1.982 1.982 0 00-1.033.148 1.82 1.82 0 00-.775.638c-.2.293-.322.638-.367 1.036-.044.398 0 .761.13 1.091.139.33.344.598.616.803.28.199.605.319.976.36zm15.911-1.467c.645.235 1.08.579 1.306 1.03.228.445.227.984-.004 1.616l-1.117 3.063-.64-.233.282-.77c-.244.202-.54.32-.887.357-.34.04-.711-.014-1.112-.16-.55-.202-.941-.493-1.171-.875a1.356 1.356 0 01-.108-1.22c.153-.42.427-.704.82-.851.401-.145.934-.096 1.598.146l1.568.572.11-.3c.156-.426.154-.792-.004-1.098-.156-.312-.462-.552-.92-.719a2.747 2.747 0 00-.96-.169 2.352 2.352 0 00-.896.152l-.119-.608a2.773 2.773 0 011.08-.159c.395.009.786.084 1.174.226zm-1.877 4.414c.376.137.73.17 1.06.1a1.67 1.67 0 00.876-.533l.295-.808-1.55-.565c-.846-.309-1.376-.168-1.59.42a.874.874 0 00.078.806c.16.243.437.436.831.58zm16.725 2.701c.549.367.876.819.983 1.355.116.535-.03 1.107-.437 1.717l-1.694 2.536-.591-.395 1.656-2.478c.303-.454.421-.877.353-1.267-.068-.39-.312-.726-.734-1.007-.471-.315-.94-.424-1.406-.326-.456.095-.85.39-1.179.883l-1.533 2.295-.59-.394 2.921-4.374.566.378-.539.807a1.946 1.946 0 011.076-.171c.388.043.771.19 1.148.442zm10.277 11.817l-1.678-.143-1.105 1.015-.48-.523 5.466-5.018.48.523-3.706 3.401 4.238.373.595.648-3.105-.203-.628 3.915-.588-.641.511-3.347zm10.161 14.293l-2.152-3.838c-.458.303-.741.703-.852 1.2-.105.495-.016.995.268 1.501.16.285.356.519.589.702.238.18.505.301.8.365l-.205.574a2.248 2.248 0 01-.989-.455 2.922 2.922 0 01-.754-.895c-.264-.471-.4-.945-.408-1.423.001-.474.122-.913.363-1.315a2.71 2.71 0 011.032-.98c.448-.252.903-.38 1.365-.388.466 0 .892.112 1.279.338.39.232.704.56.942.985.238.425.353.86.344 1.309a2.397 2.397 0 01-.383 1.258c-.241.388-.589.709-1.042.963l-.197.1zm.746-3.33c-.248-.443-.599-.735-1.053-.877-.446-.14-.907-.104-1.383.11l1.824 3.254c.431-.296.701-.673.811-1.131.118-.457.052-.909-.199-1.356zm5.356 12.774c.387.054.715.21.985.468.271.265.479.63.624 1.094l-.659.205-.041-.165c-.165-.528-.456-.89-.874-1.089-.418-.197-.92-.205-1.505-.022l-2.558.8-.212-.678 5.021-1.569.203.65-.984.306zm-1.215 13.989a2.86 2.86 0 01.207-1.426c.187-.426.472-.775.855-1.045a2.79 2.79 0 011.351-.48c.511-.048.98.025 1.407.218.427.195.772.483 1.036.867.265.39.421.844.471 1.361.042.452-.009.862-.155 1.23a1.982 1.982 0 01-.687.92l-.408-.494a1.62 1.62 0 00.515-.712c.108-.278.147-.573.117-.885a2.053 2.053 0 00-.356-1.001 1.799 1.799 0 00-.783-.639 2.245 2.245 0 00-1.089-.148 2.265 2.265 0 00-1.052.35c-.289.202-.505.46-.65.776a2.12 2.12 0 00-.151 1.048c.029.312.119.595.271.849.151.253.364.454.639.602l-.308.562a2.043 2.043 0 01-.857-.773 2.758 2.758 0 01-.373-1.18zm4.433 13.263c.332.206.569.481.711.826.14.352.183.77.128 1.253l-.686-.079.03-.167c.063-.55-.057-1-.359-1.35-.302-.35-.758-.56-1.368-.63l-2.662-.304.081-.705 5.225.598-.077.675-1.023-.117zm-2.418 16.049l-4.787-4.323c-.404-.355-.66-.698-.77-1.028-.11-.33-.104-.683.018-1.057.078-.24.189-.453.333-.638a1.54 1.54 0 01.519-.43l.402.478a1.307 1.307 0 00-.677.789.943.943 0 00.001.642c.073.206.239.428.498.666l.414.377 5.72-.61-.229.703-4.864.5 3.639 3.266-.217.665zm-5.363 11.791a2.668 2.668 0 01-.986.969 2.37 2.37 0 01-1.291.315 2.813 2.813 0 01-1.365-.431c-.45-.274-.79-.613-1.02-1.018a2.428 2.428 0 01-.323-1.297c.016-.45.154-.889.413-1.316a2.56 2.56 0 01.825-.856c.33-.197.698-.302 1.103-.313l-2.504-1.522.368-.606 6.154 3.738-.354.581-.888-.54c.185.363.268.74.247 1.134-.024.399-.15.786-.379 1.162zm-4.007-2.494a2.019 2.019 0 00-.306.985 1.8 1.8 0 00.26.977c.178.311.438.57.78.778.342.208.689.317 1.041.328.354.02.683-.053.987-.219.304-.166.551-.406.742-.72.193-.319.294-.651.302-.998a1.891 1.891 0 00-.261-.977 2.17 2.17 0 00-.776-.764 2.238 2.238 0 00-1.044-.342 1.889 1.889 0 00-.987.219c-.298.17-.544.414-.738.733zm-9.512 12.13a1.39 1.39 0 01.142-.555c.09-.181.209-.349.356-.503.341-.357.7-.54 1.077-.549.377-.009.741.155 1.093.491l2.301 2.195.649-.68.434.415-.649.68.832.794-.49.513-.832-.794-1.105 1.158-.434-.414 1.105-1.158-2.272-2.168c-.227-.216-.453-.326-.68-.331-.226.006-.44.115-.643.327a1.253 1.253 0 00-.343.75l-.541-.171zm-8.54 6.91c.42-.283.863-.444 1.326-.484a2.56 2.56 0 011.333.26c.421.207.774.524 1.061.949.287.426.447.873.481 1.341.033.467-.055.909-.266 1.324a2.77 2.77 0 01-.946 1.047 2.769 2.769 0 01-1.327.483 2.4 2.4 0 01-1.318-.257 2.713 2.713 0 01-1.061-.949 2.727 2.727 0 01-.481-1.34 2.482 2.482 0 01.252-1.327c.21-.415.526-.764.946-1.047zm.352.522c-.31.209-.539.464-.69.766a1.8 1.8 0 00-.172.997c.036.353.166.695.39 1.027.223.332.492.581.805.748.313.166.641.235.983.206.34-.02.665-.135.974-.343.31-.209.541-.469.693-.78.15-.302.21-.631.178-.988a2.235 2.235 0 00-.39-1.027 2.242 2.242 0 00-.805-.748 1.893 1.893 0 00-.988-.215 2.06 2.06 0 00-.978.357zM91.302 132.48a2.668 2.668 0 01-1.375.134 2.365 2.365 0 01-1.203-.566 2.808 2.808 0 01-.791-1.192 2.808 2.808 0 01-.152-1.423 2.43 2.43 0 01.563-1.213c.3-.349.681-.607 1.145-.774a2.508 2.508 0 011.215-.14c.39.058.744.218 1.065.478l-.353-.979.64-.23 2.515 6.981-.668.24-1.071-2.973a2.154 2.154 0 01-.53 1.009 2.483 2.483 0 01-1 .648zm-1.552-4.458c-.345.124-.63.316-.856.574-.224.265-.36.573-.411.924-.057.354-.018.719.118 1.095.135.376.338.682.607.919.263.238.564.385.903.44.34.061.683.03 1.028-.095.352-.126.639-.322.862-.587.22-.256.358-.561.415-.914a2.26 2.26 0 00-.127-1.092 2.25 2.25 0 00-.598-.922 1.895 1.895 0 00-.906-.449 2.04 2.04 0 00-1.035.107zm-13.638 8.33c-.682.073-1.224-.043-1.626-.349-.4-.299-.637-.783-.708-1.453l-.347-3.241.676-.073.087.816a1.62 1.62 0 01.638-.712c.289-.185.645-.301 1.07-.346.583-.062 1.062.027 1.436.269.375.241.586.591.635 1.048.048.444-.073.819-.362 1.125-.296.306-.795.497-1.498.572l-1.66.178.034.318c.048.451.21.779.487.984.278.212.658.292 1.142.24.332-.036.644-.126.937-.271.293-.139.54-.316.737-.532l.375.493c-.241.254-.54.46-.9.619a3.64 3.64 0 01-1.153.315zm-.26-4.79c-.398.043-.73.169-.996.378a1.674 1.674 0 00-.551.864l.091.855 1.64-.175c.896-.096 1.31-.456 1.243-1.079a.872.872 0 00-.425-.688c-.25-.148-.585-.199-1.002-.155zm-16.204 4.946c-.654-.087-1.147-.348-1.48-.782-.34-.429-.46-1.007-.363-1.734l.403-3.023.704.094-.394 2.954c-.073.542.008.973.24 1.293.234.32.601.514 1.104.581.561.075 1.03-.034 1.405-.327.368-.287.591-.725.67-1.313l.365-2.736.703.094-.695 5.214-.674-.09.128-.961c-.234.291-.53.5-.89.627a2.562 2.562 0 01-1.226.109zm-14.432-6.077l1.57-.612.544-1.397.662.257-2.696 6.913-.661-.257 1.827-4.687-3.968 1.533-.82-.319 2.877-1.186-1.162-3.791.81.316 1.017 3.23zm-15.42-8.352l3.623 2.496c.277-.473.356-.957.236-1.452-.124-.49-.425-.9-.903-1.229a2.338 2.338 0 00-.837-.371 2.026 2.026 0 00-.88.026l-.068-.606a2.256 2.256 0 011.087-.028c.37.076.727.233 1.072.471.445.307.776.673.993 1.097.208.427.293.874.254 1.341a2.717 2.717 0 01-.494 1.335 2.85 2.85 0 01-1.055.949c-.417.207-.85.294-1.297.261a2.602 2.602 0 01-1.28-.469 2.54 2.54 0 01-.885-1.023 2.402 2.402 0 01-.21-1.299c.045-.454.215-.895.51-1.324l.134-.175zm.798 3.319c.417.287.86.395 1.332.322.461-.07.859-.307 1.192-.708l-3.072-2.116c-.256.454-.332.912-.229 1.372.095.462.354.838.777 1.13zm-10.438-9.107a1.73 1.73 0 01-1.09.014c-.36-.118-.707-.354-1.043-.707l.501-.475.11.131c.38.401.802.598 1.265.591.462-.006.915-.221 1.36-.643l1.944-1.845.49.515-3.816 3.621-.468-.493.747-.709z" fill="currentColor"/>
</symbol><symbol id="eye-crossed" viewBox="0 0 18 14">
    <g fill="currentColor">
        <path fill-rule="evenodd" clip-rule="evenodd" d="M2.252 3.689L.64 2.48A.8.8 0 011.6 1.2l14.72 11.04a.8.8 0 11-.96 1.28l-2.028-1.521A9.791 9.791 0 019 13c-4.09 0-7.585-2.488-9-6a9.487 9.487 0 012.252-3.311zm8.928 6.696A4.138 4.138 0 019 11c-2.258 0-4.09-1.792-4.09-4 0-.411.063-.808.18-1.182L6.548 6.91 6.545 7c0 1.328 1.097 2.4 2.455 2.4.253 0 .496-.037.725-.106l1.455 1.09z"/>
        <path d="M8.526 4.644l2.923 2.193C11.364 5.585 10.302 4.6 9 4.6c-.162 0-.32.015-.474.044z"/>
        <path d="M13.09 7c0 .337-.042.664-.122.976l2.925 2.194A9.478 9.478 0 0018 7c-1.416-3.512-4.91-6-9-6a9.798 9.798 0 00-4.128.904l2.136 1.602A4.143 4.143 0 019 3c2.258 0 4.09 1.792 4.09 4z"/>
    </g>
</symbol><symbol id="eye" viewBox="0 0 18 14">
    <path d="M9 1C4.91 1 1.415 3.488 0 7c1.415 3.512 4.91 6 9 6s7.584-2.488 9-6c-1.416-3.512-4.91-6-9-6zm0 10c-2.258 0-4.09-1.792-4.09-4S6.741 3 9 3s4.09 1.792 4.09 4-1.832 4-4.09 4zm0-6.4C7.642 4.6 6.545 5.672 6.545 7c0 1.328 1.097 2.4 2.455 2.4s2.454-1.072 2.454-2.4c0-1.328-1.096-2.4-2.454-2.4z" fill="currentColor"/>
</symbol><symbol id="flag_en">
    <path d="M24 0H0v16h24V0z" fill="#F0F0F0"/>
    <path d="M13.5 0h-3v6.5H0v3h10.5V16h3V9.5H24v-3H13.5V0z" fill="#D80027"/>
    <path d="M18.455 10.782l5.541 3.079v-3.079h-5.54zM14.605 10.782L23.997 16v-1.475l-6.736-3.742h-2.655zM21.495 16l-6.89-3.829V16h6.89z" fill="#0052B4"/>
    <path d="M14.61 10.782L24 16v-1.476l-6.735-3.742H14.61z" fill="#F0F0F0"/>
    <path d="M14.61 10.782L24 16v-1.476l-6.735-3.742H14.61z" fill="#D80027"/>
    <path d="M4.235 10.782L0 13.135v-2.353h4.235zM9.39 11.446v4.553H1.193l8.197-4.553z" fill="#0052B4"/>
    <path d="M6.736 10.782L0 14.524V16l9.391-5.218H6.736z" fill="#D80027"/>
    <path d="M5.541 5.217L0 2.14v3.078h5.541zM9.391 5.217L0 0v1.475l6.736 3.742H9.39zM2.5 0l6.89 3.828V0H2.5z" fill="#0052B4"/>
    <path d="M9.391 5.217L0 0v1.475l6.736 3.742H9.39z" fill="#F0F0F0"/>
    <path d="M9.391 5.217L0 0v1.475l6.736 3.742H9.39z" fill="#D80027"/>
    <path d="M19.766 5.217L24 2.865v2.352h-4.234zM14.61 4.554V0h8.196l-8.197 4.554z" fill="#0052B4"/>
    <path d="M17.265 5.217l6.736-3.742V0l-9.392 5.217h2.656z" fill="#D80027"/>
</symbol><symbol id="flag_ru">
    <path fill="#fff" d="M0 0h24v5.333H0z"/>
    <path fill="#1627C8" d="M0 5.333h24v5.333H0z"/>
    <path fill="#F71717" d="M0 10.667h24V16H0z"/>
</symbol><symbol id="logo" viewBox="0 0 185 51">
    <path d="M150.673.509a30.71 30.71 0 00-5.177 1.426c-3.437 1.281-6.56 3.16-9.191 5.527-2.631 2.368-4.719 5.18-6.142 8.273a23.304 23.304 0 00-2.157 9.759c0 3.348.733 6.664 2.157 9.758 1.423 3.094 3.511 5.905 6.142 8.273 2.631 2.368 5.754 4.246 9.191 5.528a30.723 30.723 0 005.177 1.425v-5.232a24.465 24.465 0 01-3.008-.905c-2.75-1.025-5.249-2.528-7.354-4.422-2.104-1.895-3.774-4.143-4.913-6.619a18.645 18.645 0 01-1.725-7.806c0-2.68.586-5.332 1.725-7.807 1.139-2.475 2.809-4.724 4.913-6.618 2.105-1.895 4.604-3.397 7.354-4.423.98-.365 1.985-.667 3.008-.905V.51z" fill="#E0DDD7"/>
    <path fill-rule="evenodd" clip-rule="evenodd" d="M156.34 0v51c5.667 0 11.107-1.224 17-5.1 8.273-5.355 11.333-13.77 11.333-20.4 0-6.63-3.06-14.79-11.333-20.4-5.893-3.876-11.333-5.1-17-5.1zm5.667 21.471V5.712c10.37 2.856 13.543 8.874 15.3 11.934l-15.3 3.825zm0 23.817V26.775l16.773-4.182c1.757 14.433-10.143 21.267-16.773 22.695z" fill="#A68B66"/>
    <path d="M0 9.69c0-1.364.257-2.634.772-3.81a8.734 8.734 0 012.23-3.075c.98-.873 2.172-1.56 3.577-2.058C7.992.25 9.589 0 11.369 0c1.56 0 2.989.16 4.287.478 1.307.31 2.52.788 3.639 1.433l-1.789 2.94a6.193 6.193 0 00-1.163-.588 9.645 9.645 0 00-1.397-.429c-.49-.122-1-.216-1.531-.281a12.533 12.533 0 00-1.556-.098c-1.242 0-2.348.155-3.32.465-.972.302-1.793.731-2.463 1.287a5.502 5.502 0 00-1.519 1.972c-.343.76-.514 1.597-.514 2.511 0 .948.18 1.818.539 2.61.36.792.878 1.478 1.556 2.058.686.572 1.519 1.02 2.499 1.348.988.318 2.103.477 3.344.477.564 0 1.123-.04 1.679-.122a13.96 13.96 0 001.604-.331 14.191 14.191 0 001.507-.514c.482-.205.931-.425 1.348-.662l1.788 2.94c-1.045.67-2.254 1.197-3.626 1.58-1.372.376-2.83.564-4.373.564-1.969 0-3.696-.253-5.182-.76-1.487-.514-2.728-1.216-3.725-2.107a8.782 8.782 0 01-2.254-3.16C.25 12.394 0 11.087 0 9.69zM23.24 4.925h3.627v2.082c.8-.596 1.645-1.11 2.535-1.543.89-.433 1.777-.764 2.659-.992l1.066 3.32c-1.397.138-2.626.453-3.688.943-1.053.482-1.911 1.164-2.573 2.046v8.6H23.24V4.925zM37.06 21.194a7.9 7.9 0 001.225.65c.44.187.898.342 1.372.465.482.122.972.212 1.47.27.498.064.992.097 1.482.097 1.666 0 2.948-.36 3.847-1.078.906-.71 1.36-1.78 1.36-3.21v-.49c-.319.22-.678.425-1.078.613-.392.18-.817.335-1.274.466-.45.13-.927.232-1.434.306a11.66 11.66 0 01-1.519.098c-1.102 0-2.09-.16-2.965-.478-.865-.327-1.6-.8-2.205-1.421-.596-.629-1.053-1.4-1.372-2.316-.318-.914-.477-1.96-.477-3.136V4.925h3.614v6.1c0 1.748.33 3.039.992 3.872.67.825 1.723 1.237 3.16 1.237 1.013 0 1.907-.175 2.683-.527.784-.359 1.41-.816 1.875-1.372v-9.31h3.626v12.802c0 1.38-.196 2.577-.588 3.59-.392 1.02-.964 1.866-1.715 2.535-.743.67-1.658 1.168-2.744 1.495-1.087.335-2.32.502-3.7.502-1.348 0-2.605-.143-3.773-.429a15.054 15.054 0 01-3.21-1.164l1.348-3.062zM59.16 25.286h-3.626V4.925h3.627v1.36c.318-.22.694-.43 1.127-.625.432-.196.898-.368 1.396-.515a11.775 11.775 0 011.544-.343 9.53 9.53 0 011.592-.134c1.225 0 2.348.18 3.37.539 1.028.359 1.91.865 2.645 1.519a6.838 6.838 0 011.716 2.352c.416.906.624 1.91.624 3.014 0 1.151-.216 2.192-.649 3.123a7.058 7.058 0 01-1.8 2.377c-.76.654-1.667 1.16-2.72 1.52-1.046.35-2.181.526-3.406.526-.523 0-1.041-.033-1.556-.098a13.774 13.774 0 01-1.47-.27c-.466-.114-.907-.249-1.323-.404a7.975 7.975 0 01-1.09-.527v6.947zm0-10.45a6.55 6.55 0 001.164.747c.409.204.825.372 1.25.502.425.131.853.229 1.286.294.433.057.854.086 1.262.086.833 0 1.572-.11 2.217-.33.654-.23 1.201-.54 1.642-.932.45-.392.792-.853 1.03-1.384a4.19 4.19 0 00.354-1.728c0-.58-.118-1.127-.355-1.641a3.838 3.838 0 00-1.005-1.348 4.63 4.63 0 00-1.58-.918c-.612-.23-1.302-.343-2.07-.343-.49 0-.98.048-1.47.147-.49.09-.964.22-1.421.392-.45.171-.874.38-1.274.624a5.473 5.473 0 00-1.03.821v5.01zM82.217 16.12h1.656v3.26H81.29c-.987 0-1.848-.192-2.584-.576a3.953 3.953 0 01-1.656-1.656c-.385-.736-.577-1.606-.577-2.61v-5.77h-2.459V7.99l5.37-5.695h.677v3.537h3.738v2.936h-3.663v5.294c0 .652.175 1.162.527 1.53.368.351.886.527 1.555.527zM85.513 12.153a6.9 6.9 0 01.625-2.916 7.168 7.168 0 011.8-2.377c.785-.677 1.728-1.212 2.83-1.604 1.111-.392 2.357-.588 3.737-.588s2.622.196 3.724.588c1.11.392 2.054.927 2.83 1.604a6.963 6.963 0 011.801 2.377c.425.907.637 1.879.637 2.916s-.212 2.009-.637 2.915a6.964 6.964 0 01-1.801 2.377c-.776.678-1.72 1.213-2.83 1.605-1.102.392-2.344.588-3.724.588-1.38 0-2.626-.196-3.736-.588-1.103-.392-2.046-.927-2.83-1.605a7.169 7.169 0 01-1.801-2.377 6.9 6.9 0 01-.625-2.915zm3.81 0c0 .58.114 1.13.343 1.654.237.514.576.971 1.017 1.372.449.392.992.706 1.63.943.644.229 1.375.343 2.192.343.817 0 1.544-.114 2.18-.343.646-.237 1.189-.551 1.63-.943a4.009 4.009 0 001.372-3.026c0-.58-.118-1.131-.355-1.654a3.86 3.86 0 00-1.017-1.372c-.441-.4-.984-.715-1.63-.943-.636-.237-1.363-.356-2.18-.356-.817 0-1.548.119-2.193.356a4.912 4.912 0 00-1.63.943c-.44.392-.78.85-1.016 1.372a4.081 4.081 0 00-.343 1.654zM1.164 31.595h10.23c1.249 0 2.335.135 3.258.404.931.261 1.703.625 2.315 1.09.613.466 1.066 1.021 1.36 1.666.302.637.453 1.328.453 2.07 0 1.218-.383 2.284-1.151 3.198.882.523 1.54 1.2 1.972 2.034.433.833.65 1.78.65 2.842 0 .89-.152 1.695-.454 2.413a4.725 4.725 0 01-1.36 1.85c-.604.507-1.372.899-2.303 1.177-.923.269-2.013.404-3.27.404h-11.7V31.595zm11.724 7.35c.335 0 .661.013.98.037.547-.523.82-1.119.82-1.789 0-.694-.273-1.229-.82-1.604-.54-.384-1.331-.576-2.377-.576H5.047v3.932h7.84zm.073 8.416c1.046 0 1.838-.224 2.377-.673.547-.45.82-1.082.82-1.9 0-.816-.273-1.453-.82-1.91-.54-.458-1.331-.686-2.377-.686H5.047v5.17h7.914zM22.554 46.185a4 4 0 01.454-1.898c.302-.572.755-1.062 1.36-1.47.604-.417 1.355-.736 2.253-.956.907-.229 1.96-.343 3.161-.343.89 0 1.826.065 2.806.196.988.13 2.005.33 3.05.6a2.853 2.853 0 00-.416-1.262 3.144 3.144 0 00-.993-1.004c-.416-.286-.923-.507-1.519-.662-.588-.155-1.258-.233-2.01-.233-.407 0-.857.025-1.347.074a17.93 17.93 0 00-3.075.588c-.506.147-.98.323-1.42.527l-1.103-2.977a21.215 21.215 0 011.752-.54c.628-.163 1.27-.301 1.923-.416a23.097 23.097 0 011.96-.281 19.072 19.072 0 011.899-.099c2.703 0 4.712.69 6.027 2.07 1.315 1.381 1.973 3.497 1.973 6.347v6.297h-3.627v-1.36a11.644 11.644 0 01-2.682 1.14c-.523.146-1.087.26-1.691.342-.596.09-1.23.135-1.899.135-1.127 0-2.12-.123-2.977-.367-.85-.245-1.56-.585-2.131-1.017a4.397 4.397 0 01-1.299-1.52 4.313 4.313 0 01-.429-1.91zm3.822-.122c0 .237.062.465.184.686.123.212.319.404.588.576.27.163.613.298 1.03.404.424.098.934.147 1.53.147.638 0 1.254-.057 1.85-.171a10.769 10.769 0 001.667-.454c.514-.188.98-.404 1.396-.649a5.823 5.823 0 001.041-.76v-.637a20.992 20.992 0 00-1.653-.392 19.67 19.67 0 00-1.556-.245 20.466 20.466 0 00-2.536-.172c-.678 0-1.242.046-1.69.136-.45.09-.813.212-1.091.367-.278.147-.474.323-.588.527a1.287 1.287 0 00-.172.637zM43.59 36.287h3.625v1.225c.964-.547 1.883-.931 2.757-1.152.882-.22 1.744-.33 2.585-.33 1.102 0 2.123.163 3.063.49a6.69 6.69 0 012.437 1.433c.686.637 1.221 1.433 1.605 2.389.392.947.588 2.046.588 3.295v7.106h-3.614v-6.518c0-.792-.114-1.498-.343-2.12a4.127 4.127 0 00-.968-1.58 3.984 3.984 0 00-1.53-.98c-.597-.228-1.267-.343-2.01-.343-.392 0-.796.041-1.213.123-.408.082-.812.2-1.213.355a6.419 6.419 0 00-1.139.564c-.367.22-.702.474-1.005.76v9.739H43.59V36.287zM64.22 30.419h3.626v12.005l6.763-6.137h5.55l-7.56 6.762 8.037 7.694h-5.44l-5.377-5.207-1.973 1.764v3.443H64.22V30.419zM81.837 43.466c0-.98.2-1.915.6-2.806.4-.898.976-1.69 1.728-2.376.751-.686 1.67-1.234 2.756-1.642 1.095-.408 2.336-.613 3.724-.613 1.38 0 2.622.209 3.725.625 1.11.409 2.05.972 2.817 1.69a7.245 7.245 0 011.777 2.537c.416.972.625 2.013.625 3.124 0 .139-.004.29-.013.453 0 .155-.008.298-.024.429H85.88c.155.433.404.829.747 1.188.351.36.788.67 1.311.931a7.612 7.612 0 001.813.613c.686.139 1.446.208 2.279.208s1.662-.086 2.487-.257c.825-.18 1.613-.404 2.364-.674l1.225 2.769c-.474.22-.955.416-1.445.588-.482.163-.989.302-1.52.416-.522.106-1.074.188-1.653.245-.572.057-1.176.086-1.813.086-1.626 0-3.05-.196-4.276-.588-1.225-.392-2.25-.927-3.075-1.605-.825-.678-1.445-1.474-1.862-2.389a7.038 7.038 0 01-.625-2.952zm13.905-1.41c-.13-.4-.335-.77-.613-1.114a3.768 3.768 0 00-1.017-.907 5.118 5.118 0 00-1.42-.612 6.74 6.74 0 00-1.777-.22c-.686 0-1.31.077-1.874.232a5.699 5.699 0 00-1.483.625c-.424.261-.78.564-1.066.907a3.545 3.545 0 00-.612 1.09h9.862zM102.995 36.287h3.626v2.082c.8-.596 1.646-1.11 2.536-1.543a14.27 14.27 0 012.658-.992l1.066 3.32c-1.396.138-2.626.453-3.687.943-1.054.482-1.911 1.164-2.573 2.046v8.6h-3.626V36.287z" fill="#E0DDD7"/>
</symbol><symbol id="logout" viewBox="0 0 19 16">
    <g fill="currentColor">
        <path d="M15.439 11.745a.948.948 0 01-1.294 0 .846.846 0 010-1.23l1.725-1.639H7.917c-.504 0-.917-.392-.917-.872s.413-.872.917-.872h7.953l-1.725-1.648a.838.838 0 010-1.229.947.947 0 011.294 0l3.293 3.13c.357.34.357.89 0 1.23l-3.293 3.13z"/>
        <path d="M1.778 16h9.444C12.21 16 13 15.2 13 14.222v-1.666c0-.49-.4-.89-.889-.89s-.889.4-.889.89v.777c0 .49-.4.89-.889.89H2.667a.892.892 0 01-.89-.89V2.667c0-.49.4-.89.89-.89h7.666c.49 0 .89.4.89.89v.777c0 .49.4.89.888.89.489 0 .889-.4.889-.89V1.778C13 .8 12.2 0 11.222 0H1.778C.8 0 0 .8 0 1.778v12.444C0 15.2.8 16 1.778 16z"/>
    </g>
</symbol><symbol id="logo_s" viewBox="0 0 46 42">
    <path d="M18.4.413c-1.435.264-2.842.65-4.202 1.158-2.79 1.04-5.326 2.566-7.461 4.488-2.136 1.923-3.83 4.206-4.986 6.718A18.928 18.928 0 000 20.7c0 2.719.595 5.411 1.75 7.924 1.157 2.512 2.85 4.794 4.987 6.717 2.135 1.923 4.67 3.448 7.461 4.489 1.36.506 2.767.894 4.202 1.157V36.74a19.874 19.874 0 01-2.441-.735 18.654 18.654 0 01-5.97-3.591c-1.708-1.538-3.064-3.364-3.988-5.374A15.143 15.143 0 014.6 20.7c0-2.175.476-4.329 1.4-6.338.925-2.01 2.28-3.836 3.99-5.374a18.654 18.654 0 015.969-3.591 19.855 19.855 0 012.441-.735V.413z" fill="#E0DDD7"/>
    <path fill-rule="evenodd" clip-rule="evenodd" d="M23 0v41.412c4.6 0 9.016-.994 13.8-4.141C43.516 32.922 46 26.09 46 20.706c0-5.384-2.484-12.01-9.2-16.565C32.016.994 27.6 0 23 0zm4.6 17.434V4.638c8.418 2.32 10.994 7.206 12.42 9.69L27.6 17.434zm0 19.34V21.74l13.616-3.395c1.426 11.72-8.234 17.268-13.616 18.428z" fill="#A68B66"/>
</symbol><symbol id="mail" viewBox="0 0 18 14">
    <path d="M16.2 0H1.8C.81 0 0 .787 0 1.75v10.5C0 13.213.81 14 1.8 14h14.4c.99 0 1.8-.787 1.8-1.75V1.75C18 .787 17.19 0 16.2 0zm-.36 3.719L9.954 7.298a1.826 1.826 0 01-1.908 0L2.16 3.718a.744.744 0 01-.36-.63c0-.586.657-.936 1.17-.63L9 6.126l6.03-3.666c.513-.307 1.17.043 1.17.63 0 .253-.135.49-.36.63z" fill="currentColor"/>
</symbol><symbol id="plus" viewBox="0 0 14 14">
    <rect x="6" width="2" height="14" rx="1" fill="currentColor"/>
    <rect x="14" y="6" width="2" height="14" rx="1" transform="rotate(90 14 6)" fill="currentColor"/>
</symbol><symbol id="rate_down" viewBox="0 0 18 12">
    <path d="M13.273 11.13l1.324-1.492-4.488-5.056L7.084 7.99a.845.845 0 01-1.297 0L.269 1.764a1.126 1.126 0 010-1.461.845.845 0 011.297 0L6.43 5.794l3.025-3.409a.845.845 0 011.297 0l5.141 5.782 1.324-1.492c.285-.322.782-.094.782.362v4.445c0 .29-.202.518-.46.518h-3.945c-.405.01-.607-.55-.322-.87z" fill="currentColor"/>
</symbol><symbol id="rate_up" viewBox="0 0 18 12">
    <path d="M13.273.88l1.324 1.49-4.488 5.052-3.025-3.406a.846.846 0 00-1.297 0L.269 10.238a1.124 1.124 0 000 1.46.846.846 0 001.297 0L6.43 6.21l3.025 3.406a.845.845 0 001.297 0l5.14-5.777 1.325 1.491c.285.32.782.093.782-.362V.518c.009-.29-.193-.518-.45-.518h-3.946c-.414 0-.616.559-.331.88z" fill="currentColor"/>
</symbol><symbol id="soc_fb" viewBox="0 0 8 16">
    <path d="M5 5.5v-2a1 1 0 011-1h1V0H5a3 3 0 00-3 3v2.5H0V8h2v8h3V8h2l1-2.5H5z" fill="currentColor"/>
</symbol><symbol id="soc_inst" viewBox="0 0 16 16">
    <path d="M12 0H4C1.8 0 0 1.8 0 4v8c0 2.2 1.8 4 4 4h8c2.2 0 4-1.8 4-4V4c0-2.2-1.8-4-4-4zM8 11.333a3.333 3.333 0 110-6.667 3.333 3.333 0 010 6.667zm4.333-6.666a1 1 0 110-2 1 1 0 010 2z" fill="currentColor"/>
</symbol><symbol id="soc_telegram" viewBox="0 0 16 14">
    <path d="M6.278 9.12l-.265 3.723c.38 0 .543-.162.74-.358l1.775-1.696 3.679 2.694c.674.376 1.15.178 1.332-.621l2.414-11.315h.001c.214-.998-.36-1.388-1.018-1.143L.743 5.838c-.969.376-.954.916-.165 1.16l3.629 1.13 8.428-5.275c.397-.262.758-.117.461.146L6.278 9.12z" fill="currentColor"/>
</symbol><symbol id="soc_twitter" viewBox="0 0 16 14">
    <path d="M16 2.039a6.839 6.839 0 01-1.89.518A3.262 3.262 0 0015.553.744a6.555 6.555 0 01-2.08.794 3.28 3.28 0 00-5.674 2.243c0 .26.022.51.076.748a9.284 9.284 0 01-6.761-3.431 3.285 3.285 0 001.008 4.384A3.24 3.24 0 01.64 5.078v.036a3.295 3.295 0 002.628 3.223 3.274 3.274 0 01-.86.108 2.9 2.9 0 01-.621-.056 3.311 3.311 0 003.065 2.285 6.59 6.59 0 01-4.067 1.399c-.269 0-.527-.012-.785-.045A9.234 9.234 0 005.032 13.5c6.036 0 9.336-5 9.336-9.334 0-.145-.005-.285-.012-.424A6.544 6.544 0 0016 2.039z" fill="currentColor"/>
</symbol><symbol id="soc_vk" viewBox="0 0 20 11">
    <path fill-rule="evenodd" clip-rule="evenodd" d="M9.4 10.896h1.152s.336-.048.528-.24c.168-.168.168-.504.168-.504s-.024-1.536.696-1.776c.696-.216 1.608 1.488 2.568 2.136.72.504 1.272.384 1.272.384l2.568-.024s1.344-.072.696-1.128c-.048-.096-.36-.792-1.896-2.208-1.608-1.488-1.392-1.248.552-3.84 1.176-1.56 1.656-2.52 1.512-2.952-.144-.384-1.008-.288-1.008-.288l-2.88.024s-.216-.024-.384.072a.852.852 0 00-.288.336S14.2 2.112 13.6 3.144c-1.296 2.184-1.8 2.304-2.016 2.16-.48-.312-.36-1.272-.36-1.944 0-2.112.312-3-.624-3.216-.312-.072-.552-.12-1.344-.144-1.032 0-1.896 0-2.4.24-.336.168-.576.528-.432.528.192.024.624.12.84.432.288.408.288 1.296.288 1.296s.168 2.496-.408 2.808c-.384.216-.912-.216-2.064-2.208C4.504 2.088 4.048.96 4.048.96s-.096-.216-.24-.312C3.688.552 3.448.48 3.184.48L.616.504s-.408 0-.552.192c-.144.168 0 .48 0 .48s2.16 5.016 4.584 7.536C6.88 11.064 9.4 10.896 9.4 10.896z" fill="currentColor"/>
</symbol><symbol id="tagree" viewBox="0 0 57 18">
    <path d="M5.98 13h-2.2c-.453 0-.88-.087-1.28-.26a3.322 3.322 0 01-1.04-.7 3.577 3.577 0 01-.7-1.06C.587 10.58.5 10.153.5 9.7V.98l2.4-.6V4.2h1.4l.6 2.4h-2v3.1a.87.87 0 00.26.64c.173.173.38.26.62.26h1.6l.6 2.4zM16.41 2.98V13h-2.4V8c0-.8-.28-1.48-.84-2.04-.56-.56-1.24-.84-2.04-.84-.387 0-.76.073-1.12.22a2.872 2.872 0 00-.92.62c-.56.56-.84 1.24-.84 2.04 0 .787.28 1.46.84 2.02.266.28.573.493.92.64.36.133.733.2 1.12.2.4 0 .76-.067 1.08-.2l.86 2.14c-.614.307-1.327.46-2.14.46a5.155 5.155 0 01-2.04-.4 5.079 5.079 0 01-1.6-1.14 5.215 5.215 0 01-1.06-1.68A5.492 5.492 0 015.85 8c0-.733.126-1.42.38-2.06.253-.64.606-1.2 1.06-1.68a4.82 4.82 0 011.6-1.12 4.943 4.943 0 012.04-.42c.653 0 1.233.1 1.74.3.506.2.953.453 1.34.76v-.8h2.4zM28.07 12c0 .72-.14 1.4-.42 2.04-.267.64-.64 1.2-1.12 1.68-.48.48-1.04.86-1.68 1.14-.64.28-1.327.42-2.06.42-.6 0-1.167-.093-1.7-.28a5.309 5.309 0 01-1.48-.8l1.74-1.72c.426.267.906.4 1.44.4.813 0 1.493-.287 2.04-.86.56-.56.84-1.233.84-2.02V7.98c0-.773-.28-1.453-.84-2.04-.56-.56-1.24-.84-2.04-.84-.774 0-1.454.28-2.04.84-.56.587-.84 1.267-.84 2.04 0 .8.28 1.48.84 2.04.586.56 1.266.84 2.04.84.4 0 .76-.067 1.08-.2l.9 2.24c-.6.24-1.247.36-1.94.36h-.04c-.72 0-1.4-.133-2.04-.4-.64-.28-1.2-.66-1.68-1.14-.48-.48-.86-1.04-1.14-1.68a5.083 5.083 0 01-.42-2.06c0-.733.12-1.42.36-2.06.24-.64.573-1.2 1-1.68.44-.48.96-.853 1.56-1.12.613-.28 1.28-.42 2-.42.693 0 1.306.107 1.84.32.533.2 1 .453 1.4.76V3h2.4v9zm3.604-8.24a5.2 5.2 0 011.26-.76c.48-.2 1.02-.3 1.62-.3v2.4c-.8 0-1.48.28-2.04.84-.56.587-.84 1.267-.84 2.04V13h-2.4V2.98h2.4v.78zM42.636 9.2h-5.24c.133.307.327.58.58.82.28.28.593.493.94.64.347.133.713.2 1.1.2.547 0 1.033-.127 1.46-.38l2.5 1c-.48.56-1.06 1-1.74 1.32-.68.307-1.42.46-2.22.46-.733 0-1.42-.133-2.06-.4-.64-.28-1.2-.66-1.68-1.14-.48-.48-.86-1.04-1.14-1.68-.267-.64-.4-1.32-.4-2.04 0-.733.133-1.42.4-2.06.28-.64.66-1.2 1.14-1.68.48-.48 1.04-.853 1.68-1.12.64-.28 1.327-.42 2.06-.42.733 0 1.42.14 2.06.42a5.154 5.154 0 012.8 2.8c.28.64.42 1.327.42 2.06 0 .427-.047.827-.14 1.2h-2.52zm-2.62-4.08c-.773 0-1.453.28-2.04.84a2.716 2.716 0 00-.58.84h5.24a2.713 2.713 0 00-.58-.84c-.56-.56-1.24-.84-2.04-.84zM54.003 9.2h-5.24c.134.307.327.58.58.82.28.28.593.493.94.64.347.133.713.2 1.1.2.547 0 1.033-.127 1.46-.38l2.5 1c-.48.56-1.06 1-1.74 1.32-.68.307-1.42.46-2.22.46-.733 0-1.42-.133-2.06-.4-.64-.28-1.2-.66-1.68-1.14-.48-.48-.86-1.04-1.14-1.68-.267-.64-.4-1.32-.4-2.04 0-.733.133-1.42.4-2.06.28-.64.66-1.2 1.14-1.68.48-.48 1.04-.853 1.68-1.12.64-.28 1.327-.42 2.06-.42.733 0 1.42.14 2.06.42a5.154 5.154 0 012.8 2.8c.28.64.42 1.327.42 2.06 0 .427-.046.827-.14 1.2h-2.52zm-2.62-4.08c-.773 0-1.453.28-2.04.84a2.716 2.716 0 00-.58.84h5.24a2.713 2.713 0 00-.58-.84c-.56-.56-1.24-.84-2.04-.84z" fill="currentColor"/>
</symbol><symbol id="time_back" viewBox="0 0 18 16">
    <path d="M10.245.003C5.731-.12 2.032 3.513 2.032 8.002H.445a.44.44 0 00-.31.755l2.474 2.488a.439.439 0 00.63 0l2.474-2.488a.444.444 0 00-.32-.755H3.807a6.213 6.213 0 016.297-6.221c3.3.044 6.076 2.826 6.12 6.132.044 3.475-2.75 6.31-6.208 6.31a6.108 6.108 0 01-3.796-1.316.88.88 0 00-1.171.071c-.373.374-.346 1.005.07 1.325A7.846 7.846 0 0010.016 16c4.479 0 8.106-3.706 7.982-8.23C17.882 3.602 14.405.12 10.245.003zm-.452 4.444a.67.67 0 00-.665.666v3.27a.9.9 0 00.434.765l2.768 1.644c.319.187.727.08.913-.23a.674.674 0 00-.23-.916l-2.555-1.52V5.104a.669.669 0 00-.665-.657z" fill="currentColor"/>
</symbol><symbol id="trading" viewBox="0 0 18 18">
    <g fill="currentColor">
        <path d="M9 12c1.862 0 3.375-1.343 3.375-3 0-1.655-1.51-3-3.375-3-.972 0-1.848.366-2.463.949-.565.536-.912 1.257-.912 2.049C5.625 10.658 7.138 12 9 12zM16.532 13.917c-3.88 3.605-10.11 3.724-14.149.367H3.68V13H0v3.419h1.382v-1.245C3.604 17.058 6.426 18 9.248 18c2.994 0 5.982-1.058 8.261-3.175l.491-.457-.977-.907-.491.456zM16.613 1.582v1.246C14.39.944 11.569 0 8.747 0 5.754 0 2.765 1.06.487 3.178L0 3.63l.977.909.491-.457C5.348.474 11.578.355 15.617 3.715H14.32V5H18V1.582h-1.387z"/>
    </g>
</symbol><symbol id="trash" viewBox="0 0 14 18">
    <path d="M1 16c0 1.1.9 2 2 2h8c1.1 0 2-.9 2-2V4H1v12zM14 1h-3.5l-1-1h-5l-1 1H0v2h14V1z" fill="currentColor"/>
</symbol><symbol id="user" viewBox="0 0 16 16">
    <path d="M8 8c2.21 0 4-1.79 4-4s-1.79-4-4-4-4 1.79-4 4 1.79 4 4 4zm0 2c-2.67 0-8 1.34-8 4v1c0 .55.45 1 1 1h14c.55 0 1-.45 1-1v-1c0-2.66-5.33-4-8-4z" fill="currentColor"/>
</symbol><symbol id="wallet" viewBox="0 0 18 18">
    <path d="M10.848 9.473v2.614c0 .486.27.862.502.862H18V8.611h-6.65c-.232 0-.502.376-.502.862zm2.74.3c.563 0 1.02.452 1.02 1.007 0 .555-.458 1.007-1.02 1.007a1.015 1.015 0 01-1.022-1.007c0-.555.458-1.007 1.021-1.007zM11.35 14.35c-1.06 0-1.923-1.014-1.923-2.261V9.473c0-1.248.863-2.262 1.923-2.262H18V5.505a1.95 1.95 0 00-1.366-1.85L15.394.45a.705.705 0 00-.396-.398.72.72 0 00-.566.012L6.749 3.56H1.974C.885 3.56 0 4.432 0 5.505v10.55C0 17.127.885 18 1.974 18h14.052C17.114 18 18 17.127 18 16.055v-1.706h-6.65zm2.987-12.7l.74 1.911h-4.939l4.2-1.91z" fill="currentColor"/>
</symbol></svg>